<?xml version="1.0" standalone="no"?>
<!DOCTYPE svg PUBLIC "-//W3C//DTD SVG 20010904//EN"
 "http://www.w3.org/TR/2001/REC-SVG-20010904/DTD/svg10.dtd">
<svg version="1.0" xmlns="http://www.w3.org/2000/svg"
 width="301.000000pt" height="167.000000pt" viewBox="0 0 301.000000 167.000000"
 preserveAspectRatio="xMidYMid meet">

<g transform="translate(0.000000,167.000000) scale(0.100000,-0.100000)"
fill="#000000" stroke="none">
<path d="M1335 1636 c-88 -21 -171 -52 -234 -87 -360 -202 -514 -634 -361
-1015 43 -107 105 -197 198 -286 293 -279 742 -302 1067 -55 132 100 234 250
287 417 20 65 23 96 23 225 0 129 -3 160 -23 225 -88 279 -292 482 -564 561
-95 27 -305 35 -393 15z m363 -86 c89 -25 179 -69 251 -122 l53 -40 -108 -109
c-59 -60 -106 -110 -103 -113 2 -2 21 -7 42 -11 37 -7 39 -6 131 84 l93 92 30
-38 c144 -183 195 -419 138 -638 -66 -256 -282 -470 -539 -535 -96 -24 -249
-26 -351 -5 -83 17 -234 89 -290 139 l-40 35 79 79 78 80 -7 42 -7 42 -98 -97
-97 -97 -36 42 c-52 61 -114 187 -137 276 -24 94 -27 260 -5 351 30 130 114
272 211 363 116 108 242 171 402 200 71 13 228 3 310 -20z"/>
<path d="M1473 1417 c-53 -58 -75 -158 -54 -243 14 -53 60 -154 71 -154 16 0
78 80 90 115 20 60 8 162 -25 223 -15 28 -35 58 -45 67 -15 13 -19 13 -37 -8z"/>
<path d="M1193 1067 c9 -62 38 -117 83 -157 39 -33 136 -83 187 -94 27 -6 27
-6 27 42 0 124 -111 235 -248 249 l-55 6 6 -46z"/>
<path d="M1720 1101 c-117 -36 -200 -136 -200 -244 0 -47 0 -47 28 -41 46 10
145 59 180 88 44 38 81 103 88 159 l7 47 -39 -1 c-22 0 -50 -4 -64 -8z"/>
<path d="M1192 799 c7 -59 31 -109 76 -154 39 -39 134 -90 190 -101 32 -6 32
-6 32 31 0 130 -109 242 -256 262 l-47 6 5 -44z"/>
<path d="M1725 826 c-61 -19 -96 -41 -137 -83 -46 -47 -68 -99 -68 -159 l0
-46 32 6 c54 11 133 52 177 92 50 45 79 97 88 159 6 44 5 45 -23 44 -16 0 -47
-6 -69 -13z"/>
<path d="M1193 528 c14 -114 99 -198 245 -241 l52 -16 0 47 c0 56 -35 135 -76
174 -37 35 -127 74 -183 81 l-44 5 6 -50z"/>
<path d="M1751 569 c-53 -10 -116 -42 -155 -77 -41 -38 -76 -118 -76 -174 l0
-47 53 16 c143 42 230 129 244 242 6 56 9 55 -66 40z"/>
</g>
</svg>
